<svg width="110" height="109" viewBox="0 0 110 109" fill="none" xmlns="http://www.w3.org/2000/svg">
<path d="M50.3861 105.812C48.8008 105.641 48.244 105.386 48.1154 104.88L45.7876 105.006C46.1288 106.303 47.4189 106.981 50.2386 107.285C53.1602 107.601 54.8173 107.001 54.9616 105.664C55.0887 104.487 54.1279 103.73 51.669 103.373L49.3347 103.029C48.4891 102.904 48.2635 102.765 48.294 102.482C48.3307 102.142 49.0034 102.066 50.8945 102.27C52.276 102.419 52.9537 102.721 53.0762 103.284L55.4833 103.166C55.1066 101.774 53.8755 101.079 51.0332 100.773C47.7266 100.416 46.0581 101.015 45.898 102.498C45.7757 103.63 46.6683 104.277 49.0228 104.645L51.347 104.976L51.6793 105.031C52.4377 105.164 52.665 105.29 52.638 105.54C52.6001 105.891 51.9602 105.982 50.3861 105.812ZM44.7823 100.008L42.515 99.2113L41.7259 101.457C41.2766 102.736 40.0306 103.155 38.3865 102.578C37.226 102.17 36.8162 101.446 37.156 100.479L38.1414 97.6746L35.8741 96.878L34.73 100.134C34.092 101.95 34.8767 103.324 37.0366 104.083C38.4336 104.574 39.8183 104.481 40.865 103.907L39.6833 107.271L41.9506 108.067L44.7823 100.008ZM30.354 93.3622C27.5684 91.5451 25.4011 91.5321 24.2499 93.2969C23.1111 95.0426 24.0032 97.0524 26.7697 98.857C29.5266 100.655 31.7445 100.674 32.8833 98.9285C34.0221 97.1828 33.111 95.1606 30.354 93.3622ZM29.3957 94.8313C30.9697 95.858 31.4014 96.6972 30.8227 97.5844C30.244 98.4716 29.302 98.4147 27.728 97.3879C26.1539 96.3611 25.7318 95.5282 26.3105 94.641C26.8892 93.7538 27.8216 93.8045 29.3957 94.8313ZM23.4358 87.9746L22.049 86.3881L17.5708 87.4434L19.2231 83.1551L17.8439 81.5772L11.0659 83.3417L12.7 85.2111L16.7197 84.0121L15.1962 88.0668L16.6429 89.7219L20.8328 88.6311L19.1315 92.569L20.848 94.5328L23.4358 87.9746ZM15.3347 78.3379L14.2254 76.2061L12.2956 77.2103C11.1235 77.8202 9.94752 77.2381 9.10629 75.6215C8.9065 75.2375 8.75237 74.8427 8.68073 74.5076L6.6636 75.4674C6.70123 75.589 6.78618 75.8016 6.85453 75.933C7.56957 77.3071 8.76063 78.1895 10.0481 78.4183L8.76297 79.2797L9.77771 81.2297L15.3347 78.3379ZM10.7983 66.8637C9.96471 63.9628 9.01484 62.8018 7.61905 62.646L7.88092 65.0831C8.36447 65.1574 8.78008 65.8202 9.21105 67.3199C9.65775 68.8743 9.56842 69.8006 8.92923 70.2569L6.81843 62.9116C6.59785 62.9276 6.41956 62.967 6.14589 63.0456C4.25209 63.5898 3.65621 65.7638 4.515 68.7523C5.39896 71.8284 7.1394 73.3073 9.07698 72.7505C11.0693 72.178 11.7012 70.0055 10.7983 66.8637ZM6.03346 68.3041C5.62136 66.8701 5.67018 66.0502 6.27023 65.5815L7.7047 70.5732C6.96925 70.4883 6.46128 69.7929 6.03346 68.3041ZM9.05449 56.0322C8.91718 53.017 8.26283 51.6672 6.94139 51.1915L6.63024 53.6228C7.08331 53.8074 7.33369 54.5486 7.40467 56.1073C7.47825 57.723 7.17628 58.6033 6.44863 58.8987L6.10097 51.264C5.88271 51.2283 5.70014 51.2253 5.41569 51.2382C3.44729 51.3278 2.36292 53.3041 2.50436 56.4103C2.64996 59.6075 3.99945 61.4502 6.01336 61.3584C8.08416 61.2641 9.20319 59.2977 9.05449 56.0322ZM4.08539 56.3269C4.01752 54.8364 4.25536 54.0502 4.94784 53.7337L5.18411 58.9221C4.48847 58.6687 4.15586 57.8743 4.08539 56.3269ZM9.05611 47.2449L0.571339 46.2546L0.292725 48.6416L8.7775 49.632L9.05611 47.2449ZM8.44151 32.6793L8.6222 32.2907C9.17565 31.1437 9.5602 30.7781 10.032 30.8095L10.633 28.5571C9.29416 28.4794 8.24993 29.4959 7.08649 32.0823C5.88099 34.7622 5.93785 36.5238 7.16356 37.0751C8.24384 37.5611 9.26111 36.8822 10.3628 34.6551L11.4131 32.5423C11.7947 31.7773 11.9967 31.6059 12.2564 31.7227C12.568 31.8629 12.432 32.5261 11.6517 34.2608C11.0817 35.528 10.5842 36.0786 10.0109 36.0205L9.37713 38.3456C10.8178 38.4192 11.8594 37.464 13.0322 34.8567C14.3966 31.8236 14.3444 30.0517 12.9836 29.4396C11.9449 28.9724 11.0538 29.6206 9.9734 31.7448L8.93816 33.8519L8.78362 34.1511C8.42148 34.8307 8.23161 35.0078 8.00248 34.9047C7.68047 34.7599 7.79204 34.1232 8.44151 32.6793ZM15.6858 29.1603L17.1437 27.2498L15.2514 25.8056C14.1739 24.9834 14.1598 23.6688 15.217 22.2835C15.9633 21.3056 16.7779 21.1393 17.5928 21.7612L19.956 23.5646L21.414 21.6541L18.6705 19.5605C17.1403 18.3927 15.5908 18.7146 14.2019 20.5346C13.3037 21.7117 12.9644 23.0574 13.1869 24.2302L10.3529 22.0675L8.89494 23.978L15.6858 29.1603ZM26.4488 17.4805C29.032 15.3857 29.7085 13.3267 28.3813 11.69C27.0685 10.0711 24.882 10.3044 22.3165 12.3849C19.7599 14.4582 19.0623 16.5636 20.3752 18.1825C21.688 19.8014 23.8921 19.5538 26.4488 17.4805ZM25.344 16.1181C23.8843 17.3019 22.9532 17.4557 22.286 16.6329C21.6188 15.8102 21.9617 14.931 23.4213 13.7473C24.881 12.5635 25.8033 12.4169 26.4705 13.2396C27.1376 14.0624 26.8037 14.9344 25.344 16.1181ZM33.7162 12.5432L35.6527 11.7128L36.0286 7.12729L39.5991 10.0204L41.5252 9.19438L41.9349 2.20256L39.6529 3.18118L39.5551 7.37474L36.1671 4.67604L34.1468 5.54243L33.8935 9.86465L30.6714 7.03281L28.2743 8.06081L33.7162 12.5432ZM45.3641 7.81413L47.7349 7.42036L47.3785 5.2743C47.162 3.97094 48.08 3.03334 49.8778 2.73474C50.3047 2.66382 50.7279 2.63972 51.0687 2.67548L50.7816 0.460184C50.6542 0.458241 50.4258 0.473094 50.2797 0.497354C48.7516 0.75116 47.5434 1.60995 46.9267 2.76306L46.5063 1.2742L44.3377 1.63438L45.3641 7.81413ZM57.693 7.0382C60.7097 7.13614 62.1064 6.58889 62.6836 5.30851L60.2839 4.80896C60.0645 5.24627 59.3062 5.43818 57.7466 5.38755C56.1301 5.33507 55.276 4.96547 55.0382 4.21702L62.6768 4.46499C62.7293 4.25018 62.7466 4.06841 62.7558 3.78381C62.8198 1.81441 60.934 0.579417 57.8262 0.478529C54.6273 0.374683 52.6852 1.57657 52.6198 3.59151C52.5525 5.66337 54.4259 6.93214 57.693 7.0382ZM57.7862 2.06125C59.2775 2.10966 60.0427 2.408 60.3044 3.12304L55.1134 2.95452C55.4201 2.28073 56.238 2.01099 57.7862 2.06125ZM68.531 8.70694C71.4427 9.50217 72.9282 9.29393 73.7867 8.18241L71.5684 7.13969C71.2536 7.51418 70.4714 7.52489 68.9661 7.11377C67.4059 6.68765 66.6609 6.12996 66.6032 5.34676L73.9758 7.36034C74.0768 7.16358 74.1358 6.99078 74.2108 6.71609C74.7299 4.81527 73.1821 3.17643 70.1826 2.35719C67.0951 1.51395 64.9271 2.23241 64.396 4.17718C63.8498 6.17689 65.3776 7.8457 68.531 8.70694ZM69.7765 3.88744C71.2158 4.28055 71.8909 4.74831 71.9796 5.50455L66.9693 4.13616C67.424 3.55194 68.2822 3.47932 69.7765 3.88744ZM76.902 11.4224L80.4746 3.66295L78.2916 2.65785L74.719 10.4173L76.902 11.4224ZM90.9213 15.3219L91.2355 15.6134C92.1565 16.4929 92.3861 16.9713 92.2111 17.4105L94.1693 18.6754C94.6552 17.4254 94.0093 16.1191 91.9063 14.2163C89.7273 12.2447 88.0337 11.7568 87.1319 12.7534C86.3372 13.6317 86.6702 14.8086 88.4502 16.542L90.1373 18.1915C90.7478 18.7899 90.8488 19.0349 90.6577 19.246C90.4285 19.4994 89.8393 19.166 88.4289 17.8898C87.3985 16.9575 87.0277 16.3148 87.2593 15.7871L85.242 14.4687C84.7288 15.8168 85.3171 17.1018 87.437 19.0199C89.9032 21.2513 91.6052 21.7469 92.6063 20.6405C93.3705 19.7959 93.0279 18.7486 91.3391 17.067L89.6528 15.4336L89.4157 15.1945C88.8805 14.6409 88.7704 14.4057 88.9389 14.2194C89.1758 13.9576 89.7473 14.2597 90.9213 15.3219ZM92.0471 23.3028L93.4184 25.2764L95.3733 23.918C96.4863 23.1446 97.7419 23.5342 98.7363 24.9653C99.4382 25.9755 99.3468 26.8019 98.505 27.3868L96.0637 29.0832L97.4351 31.0568L100.269 29.0874C101.85 27.989 102.019 26.4154 100.712 24.5354C99.8673 23.3195 98.6904 22.5839 97.5058 22.4361L100.433 20.4018L99.062 18.4282L92.0471 23.3028ZM99.8588 37.1469C101.054 40.2506 102.803 41.5297 104.77 40.7726C106.715 40.0237 107.168 37.872 105.981 34.7896C104.798 31.7177 103.011 30.4042 101.066 31.1532C99.1209 31.9021 98.6761 34.075 99.8588 37.1469ZM101.496 36.5166C100.82 34.7628 100.962 33.8297 101.95 33.4491C102.939 33.0685 103.669 33.666 104.344 35.4198C105.02 37.1736 104.874 38.0961 103.886 38.4767C102.897 38.8573 102.171 38.2704 101.496 36.5166ZM102.303 45.5616L102.494 47.6601L106.738 49.4362L102.882 51.9364L103.072 54.0236L109.594 56.5765L109.369 54.1037L105.412 52.7132L109.026 50.3264L108.827 48.1371L104.796 46.559L108.485 44.3712L108.25 41.7736L102.303 45.5616ZM103.208 58.1187L102.858 60.4963L105.011 60.813C106.318 61.0054 106.93 62.1661 106.665 63.9691C106.602 64.3973 106.495 64.8076 106.357 65.1211L108.554 65.525C108.595 65.4044 108.65 65.1823 108.672 65.0358C108.897 63.5033 108.449 62.0904 107.54 61.1507L109.086 61.2056L109.406 59.0307L103.208 58.1187ZM100.161 70.0744C99.1361 72.9135 99.2254 74.4109 100.265 75.3552L101.481 73.227C101.133 72.8834 101.185 72.1028 101.714 70.6351C102.263 69.1138 102.879 68.4156 103.664 68.4205L101.069 75.6092C101.257 75.7255 101.425 75.7981 101.693 75.8948C103.546 76.5637 105.303 75.1514 106.359 72.2266C107.445 69.2162 106.902 66.9978 105.006 66.3134C103.056 65.6097 101.271 66.9997 100.161 70.0744ZM104.866 71.6999C104.359 73.1033 103.839 73.7391 103.078 73.7672L104.841 68.8818C105.388 69.3817 105.392 70.2429 104.866 71.6999ZM95.2316 79.8645C93.5749 82.3876 93.3136 83.8646 94.1051 85.0248L95.7827 83.2377C95.5239 82.8225 95.7556 82.0753 96.6121 80.771C97.4998 79.419 98.2605 78.883 99.0232 79.0703L94.8284 85.4588C94.9843 85.6157 95.1304 85.7253 95.3684 85.8815C97.0155 86.9631 99.0527 85.9979 100.759 83.3987C102.516 80.7233 102.503 78.4394 100.818 77.3329C99.0852 76.1952 97.0257 77.132 95.2316 79.8645ZM99.4297 82.5393C98.6107 83.7865 97.9571 84.2839 97.2106 84.1343L100.061 79.7928C100.476 80.4059 100.28 81.2444 99.4297 82.5393ZM90.0585 86.9964L91.6868 85.2288L97.9696 91.0166L96.3413 92.7842L90.0585 86.9964Z" fill="white"/>
</svg>
